<svg id="Capa_1" enable-background="new 0 0 512 512" height="512" viewBox="0 0 512 512" width="512" xmlns="http://www.w3.org/2000/svg" xmlns:xlink="http://www.w3.org/1999/xlink"><linearGradient id="SVGID_1_" gradientUnits="userSpaceOnUse" x1="-43.667" x2="440.886" y1="555.667" y2="71.113"><stop offset="0" stop-color="#00aa45"/><stop offset="1" stop-color="#d3ff33"/></linearGradient><radialGradient id="SVGID_2_" cx="-9159.445" cy="-5179.924" gradientTransform="matrix(1 0 0 .772 9415.445 4256.921)" gradientUnits="userSpaceOnUse" r="339.046"><stop offset="0" stop-color="#00aa45"/><stop offset=".1962" stop-color="#3bc240" stop-opacity=".804"/><stop offset=".3975" stop-color="#71d83b" stop-opacity=".603"/><stop offset=".5857" stop-color="#9be938" stop-opacity=".414"/><stop offset=".7547" stop-color="#baf535" stop-opacity=".245"/><stop offset=".8985" stop-color="#ccfc34" stop-opacity=".102"/><stop offset="1" stop-color="#d3ff33" stop-opacity="0"/></radialGradient><linearGradient id="SVGID_3_" gradientUnits="userSpaceOnUse" x1="52.252" x2="537.583" y1="369.379" y2="-115.953"><stop offset="0" stop-color="#008547"/><stop offset=".1207" stop-color="#128f45"/><stop offset=".3633" stop-color="#41ab41"/><stop offset=".7018" stop-color="#8cd63a"/><stop offset=".9961" stop-color="#d3ff33"/></linearGradient><linearGradient id="lg1"><stop offset="0" stop-color="#008547"/><stop offset=".1212" stop-color="#128f45"/><stop offset=".3647" stop-color="#41ab41"/><stop offset=".7046" stop-color="#8cd63a"/><stop offset="1" stop-color="#d3ff33"/></linearGradient><linearGradient id="SVGID_4_" gradientUnits="userSpaceOnUse" x1="53.576" x2="565.29" xlink:href="#lg1" y1="556.566" y2="44.852"/><linearGradient id="SVGID_5_" gradientTransform="matrix(0 1 -1 0 522 -1254)" gradientUnits="userSpaceOnUse" x1="1763.893" x2="1214.053" xlink:href="#lg1" y1="504.848" y2="-44.991"/><linearGradient id="SVGID_6_" gradientTransform="matrix(0 1 -1 0 522 -1254)" gradientUnits="userSpaceOnUse" x1="1600.568" x2="1216.495" xlink:href="#lg1" y1="274.433" y2="-109.64"/><linearGradient id="SVGID_7_" gradientTransform="matrix(0 1 -1 0 522 -1254)" gradientUnits="userSpaceOnUse" x1="1498.286" x2="786.12" xlink:href="#lg1" y1="361.841" y2="-350.324"/><linearGradient id="SVGID_8_" gradientTransform="matrix(0 1 -1 0 522 -1254)" gradientUnits="userSpaceOnUse" x1="1578.06" x2="1052.186" xlink:href="#lg1" y1="356.674" y2="-169.2"/><linearGradient id="SVGID_9_" gradientUnits="userSpaceOnUse" x1="30.996" x2="600.819" xlink:href="#lg1" y1="405.87" y2="-163.953"/><linearGradient id="SVGID_10_" gradientUnits="userSpaceOnUse" x1="-26.563" x2="527.185" xlink:href="#lg1" y1="651.954" y2="98.206"/><linearGradient id="SVGID_11_" gradientTransform="matrix(0 1 -1 0 522 -1254)" gradientUnits="userSpaceOnUse" x1="1718.782" x2="1342.951" xlink:href="#lg1" y1="444.693" y2="68.862"/><linearGradient id="lg2"><stop offset="0" stop-color="#95e12e"/><stop offset=".3557" stop-color="#c0ed83"/><stop offset=".664" stop-color="#e2f7c6"/><stop offset=".8861" stop-color="#f7fdef"/><stop offset="1" stop-color="#fff"/></linearGradient><linearGradient id="SVGID_12_" gradientTransform="matrix(0 1 -1 0 522 -1254)" gradientUnits="userSpaceOnUse" x1="1714.262" x2="1508.508" xlink:href="#lg2" y1="501.942" y2="296.188"/><linearGradient id="SVGID_13_" gradientTransform="matrix(0 1 -1 0 522 -1254)" gradientUnits="userSpaceOnUse" x1="1842.38" x2="1566.347" xlink:href="#lg2" y1="537.237" y2="261.204"/><linearGradient id="SVGID_14_" gradientTransform="matrix(0 1 -1 0 522 -1254)" gradientUnits="userSpaceOnUse" x1="1568.881" x2="1156.845" y1="423.538" y2="11.502"><stop offset="0" stop-color="#b8ef5c"/><stop offset=".3622" stop-color="#d3ff33"/><stop offset="1" stop-color="#fff"/></linearGradient><linearGradient id="SVGID_15_" gradientTransform="matrix(0 1 -1 0 522 -1254)" gradientUnits="userSpaceOnUse" x1="1670.666" x2="1252.942" y1="483.639" y2="65.915"><stop offset="0" stop-color="#d3ff33"/><stop offset=".5" stop-color="#e6fe7f"/><stop offset="1" stop-color="#fff"/></linearGradient><g><circle cx="256" cy="256" fill="url(#SVGID_1_)" r="256"/><circle cx="256" cy="256" fill="url(#SVGID_2_)" r="256"/><path d="m180 102.911c-16.535.299-30.458 14.295-30.954 31.118-.141 5.082-.273 10.164-.397 15.247 9.942 7.453 19.957 14.967 30.026 22.526-10.278 7.75-20.585 15.493-30.901 23.213-.424 30.493-.53 60.985-.318 91.478.125 16.825 14.044 30.615 30.948 30.743 25.525.174 51.05.262 76.575.264-.009-71.75-.003-143.5.021-215.25-25 .006-50 .227-75 .661z" fill="url(#SVGID_3_)"/><path d="m407 104.86c-10-.346-20-.657-30-.934 2.823 70.968 3.671 141.936 2.541 212.904 10.21-.111 20.42-.235 30.63-.374 16.901-.253 30.966-13.914 31.173-30.456.362-30 .181-60-.543-90-10.391-7.666-20.786-15.38-31.168-23.127 9.967-7.367 19.864-14.663 29.675-21.873-.211-5-.437-10-.679-15-.825-16.541-15.097-30.545-31.629-31.14z" fill="url(#SVGID_4_)"/><path d="m377 103.926c-40.667-1.127-81.333-1.685-122-1.676-16.538.005-30.113 13.874-30.279 30.838-.413 51.213-.568 102.427-.465 153.64.044 16.967 13.82 30.768 30.723 30.772 41.521.004 83.041-.219 124.562-.67 16.901-.203 30.907-13.93 31.083-30.602.503-50.38-.251-100.76-2.265-151.14-.694-16.672-14.825-30.685-31.359-31.162z" fill="url(#SVGID_5_)"/><path d="m439.308 151c-10.127-.29-20.255-.556-30.382-.798-9.864 7.315-19.807 14.706-29.815 22.157 10.341 7.756 20.7 15.49 31.061 23.185 10.21.138 20.42.29 30.63.456-.363-15-.861-30-1.494-45z" fill="url(#SVGID_6_)"/><path d="m148.648 149.276c-.618 25.411-1.016 50.821-1.192 76.232 46.08-.219 92.16-.298 138.24-.238-20.528-25.635-41.017-51.31-61.091-76.817-25.319.124-50.638.398-75.957.823z" fill="url(#SVGID_7_)"/><path d="m408.925 150.202c-61.44-1.468-122.881-2.051-184.321-1.75-.181 25.607-.297 51.214-.349 76.82 36.543-10.293 73.026-20.55 109.34-30.508 25.525.174 51.05.434 76.575.78-.301-15.114-.716-30.228-1.245-45.342z" fill="url(#SVGID_8_)"/><path d="m101.829 195.544c-16.901.253-30.966 13.914-31.173 30.456-.603 50 .302 100 2.715 150 .825 16.541 15.096 30.545 31.629 31.14 25 .864 50 1.514 75 1.949-1.773-71.441-2.305-142.883-1.596-214.324-25.525.174-51.05.434-76.575.779z" fill="url(#SVGID_9_)"/><path d="m333.596 194.765c-10.21-.069-20.42-.125-30.63-.167.429 71.637.108 143.274-.966 214.911 10-.105 20-.245 30-.419 16.535-.3 30.458-14.295 30.954-31.118 1.413-50.821 1.943-101.643 1.59-152.464-.127-16.826-14.046-30.615-30.948-30.743z" fill="url(#SVGID_10_)"/><path d="m302.966 194.597c-41.521-.171-83.041-.115-124.562.167-16.902.128-30.822 13.917-30.948 30.743-.353 50.821.177 101.643 1.59 152.464.497 16.824 14.418 30.818 30.954 31.118 40.667.708 81.333.847 122 .419 16.537-.182 30.321-14.139 30.684-31.037 1.013-51.03 1.393-102.059 1.14-153.089-.092-16.898-13.955-30.706-30.858-30.785z" fill="url(#SVGID_11_)"/><path d="m117.45 331.817c.227 10.109.499 20.218.816 30.326 10.127.218 20.255.412 30.383.582 4.94-4.997 9.907-10.012 14.896-15.043-5.171-5.156-10.349-10.307-15.531-15.449-10.189-.122-20.377-.26-30.564-.416z" fill="url(#SVGID_12_)"/><path d="m148.012 332.232c.177 10.164.389 20.328.636 30.493 51.313.861 102.625 1.104 153.938.731.107-10.234.2-20.468.276-30.702-51.616.267-103.233.093-154.85-.522z" fill="url(#SVGID_13_)"/><path d="m116.608 248.419c-.045 20.218.091 40.435.408 60.653.064 4.186 3.558 7.622 7.785 7.672 7.657.088 15.315.169 22.972.242 4.928-12.657 9.937-25.347 15.002-38.065-5.179-12.749-10.32-25.473-15.4-38.167-7.686.018-15.371.038-23.057.06-4.242.014-7.701 3.419-7.71 7.605z" fill="url(#SVGID_14_)"/><path d="m147.376 240.754c-.089 25.411.044 50.821.397 76.232 17.868.17 35.735.297 53.603.383 4.228.019 7.637-3.401 7.614-7.641-.107-20.468-.153-40.935-.138-61.403.004-4.24-3.432-7.674-7.677-7.667-17.932.022-35.866.054-53.799.096z" fill="url(#SVGID_15_)"/></g></svg>